<svg xmlns="http://www.w3.org/2000/svg" xmlns:xlink="http://www.w3.org/1999/xlink" style="height: 0; position: absolute">
  <symbol id="codepen" viewBox="0 0 16 16"><path d="M15.988 5.443c-.004-.02-.007-.04-.012-.058l-.01-.033c-.006-.017-.012-.034-.02-.05-.003-.012-.01-.023-.014-.034l-.023-.045-.02-.032-.03-.04-.024-.03c-.01-.013-.022-.026-.034-.038l-.027-.027-.04-.032-.03-.024-.012-.01L8.38.117c-.23-.155-.53-.155-.76 0L.305 4.99.296 5c-.012.007-.022.015-.032.023-.014.01-.027.02-.04.032l-.027.027-.034.037-.024.03-.03.04c-.006.012-.013.022-.02.033l-.023.045-.015.034c-.007.016-.012.033-.018.05l-.01.032c-.005.02-.01.038-.012.058l-.006.03C.002 5.5 0 5.53 0 5.56v4.875c0 .03.002.06.006.09l.007.03c.003.02.006.04.013.058l.01.033c.006.018.01.035.018.05l.015.033c.006.016.014.03.023.047l.02.03c.008.016.018.03.03.042.007.01.014.02.023.03.01.012.02.025.034.036.01.01.018.02.028.026l.04.033.03.023.01.01 7.31 4.876c.116.078.248.117.382.116.134 0 .266-.04.38-.116l7.314-4.875.01-.01c.012-.007.022-.015.032-.023.014-.01.027-.02.04-.032l.027-.027.034-.037.024-.03.03-.04.02-.032.023-.046.015-.033.018-.052.01-.033c.005-.02.01-.038.013-.058 0-.01.003-.02.004-.03.004-.03.006-.06.006-.09V5.564c0-.03-.002-.06-.006-.09l-.007-.03zM8 9.626L5.568 8 8 6.374 10.432 8 8 9.626zM7.312 5.18l-2.98 1.993-2.406-1.61 5.386-3.59v3.206zM3.095 8l-1.72 1.15v-2.3L3.095 8zm1.237.828l2.98 1.993v3.208l-5.386-3.59 2.406-1.61zm4.355 1.993l2.98-1.993 2.407 1.61-5.387 3.59v-3.206zM12.905 8l1.72-1.15v2.3L12.905 8zm-1.237-.827L8.688 5.18V1.97l5.386 3.59-2.406 1.61z" fill-rule="nonzero"/></symbol>
  <symbol id="dribbble" viewBox="0 0 16 16"><path d="M8 16c-4.41 0-8-3.59-8-8s3.59-8 8-8 8 3.59 8 8-3.59 8-8 8zm6.747-6.905c-.234-.074-2.115-.635-4.257-.292.894 2.456 1.258 4.456 1.328 4.872 1.533-1.037 2.624-2.68 2.93-4.58zM10.67 14.3c-.102-.6-.5-2.688-1.46-5.18l-.044.014C5.312 10.477 3.93 13.15 3.806 13.4c1.158.905 2.614 1.444 4.194 1.444.947 0 1.85-.194 2.67-.543zm-7.747-1.72c.155-.266 2.03-3.37 5.555-4.51.09-.03.18-.056.27-.08-.173-.39-.36-.778-.555-1.16C4.78 7.85 1.47 7.807 1.17 7.8l-.003.208c0 1.755.665 3.358 1.756 4.57zM1.31 6.61c.307.005 3.122.017 6.318-.832-1.132-2.012-2.353-3.705-2.533-3.952-1.912.902-3.34 2.664-3.784 4.785zM6.4 1.368c.188.253 1.43 1.943 2.548 4 2.43-.91 3.46-2.293 3.582-2.468C11.323 1.827 9.736 1.176 8 1.176c-.55 0-1.087.066-1.6.19zm6.89 2.322c-.145.194-1.29 1.662-3.816 2.694.16.325.31.656.453.99.05.117.1.235.147.352 2.274-.286 4.533.172 4.758.22-.015-1.613-.59-3.094-1.543-4.257z"/></symbol>
  <symbol id="designernews" viewBox="0 0 16 16"><path d="M7.514 7.988c0-2.555-1.57-4.287-4.56-4.287H0v8.6h3.016c2.903 0 4.498-1.75 4.498-4.31zM5.37 8c0 1.844-.946 2.642-2.467 2.642H2.13V5.358h.773C4.36 5.358 5.37 6.193 5.37 8zM16 12.3V3.7h-1.98v4.81L10.853 3.7h-2.07v8.6h1.982V7.152l3.39 5.146H16z"/></symbol>
  <symbol id="facebook" viewBox="0 0 16 16"><path d="M15.117 0H.883C.395 0 0 .395 0 .883v14.234c0 .488.395.883.883.883h7.663V9.804H6.46V7.39h2.086V5.607c0-2.066 1.262-3.19 3.106-3.19.883 0 1.642.064 1.863.094v2.16h-1.28c-1 0-1.195.476-1.195 1.176v1.54h2.39l-.31 2.416h-2.08V16h4.077c.488 0 .883-.395.883-.883V.883C16 .395 15.605 0 15.117 0" fill-rule="nonzero"/></symbol>
  <symbol id="flickr" viewBox="0 0 16 16"><path d="M0 8c0 2.05 1.662 3.71 3.71 3.71 2.05 0 3.713-1.66 3.713-3.71S5.76 4.29 3.71 4.29C1.663 4.29 0 5.95 0 8zm8.577 0c0 2.05 1.662 3.71 3.712 3.71C14.337 11.71 16 10.05 16 8s-1.662-3.71-3.71-3.71c-2.05 0-3.713 1.66-3.713 3.71z"/></symbol>
  <symbol id="github" viewBox="0 0 16 16"><path d="M8 0C3.58 0 0 3.582 0 8c0 3.535 2.292 6.533 5.47 7.59.4.075.547-.172.547-.385 0-.19-.007-.693-.01-1.36-2.226.483-2.695-1.073-2.695-1.073-.364-.924-.89-1.17-.89-1.17-.725-.496.056-.486.056-.486.803.056 1.225.824 1.225.824.714 1.223 1.873.87 2.33.665.072-.517.278-.87.507-1.07-1.777-.2-3.644-.888-3.644-3.953 0-.873.31-1.587.823-2.147-.083-.202-.358-1.015.077-2.117 0 0 .672-.215 2.2.82.638-.178 1.323-.266 2.003-.27.68.004 1.364.092 2.003.27 1.527-1.035 2.198-.82 2.198-.82.437 1.102.163 1.915.08 2.117.513.56.823 1.274.823 2.147 0 3.073-1.87 3.75-3.653 3.947.287.246.543.735.543 1.48 0 1.07-.01 1.933-.01 2.195 0 .215.144.463.55.385C13.71 14.53 16 11.534 16 8c0-4.418-3.582-8-8-8"/></symbol>
  <symbol id="hackernews" viewBox="0 0 16 16"><path d="M0 0v16h16V0H0zm8.92 8.96v3H7.25v-3l-2.75-5h1.96l1.66 3.48L9.7 3.96h1.88l-2.66 5z"/></symbol>
  <symbol id="instagram" viewBox="0 0 16 16"><path d="M8 0C5.827 0 5.555.01 4.702.048 3.85.088 3.27.222 2.76.42c-.526.204-.973.478-1.417.923-.445.444-.72.89-.923 1.417-.198.51-.333 1.09-.372 1.942C.008 5.555 0 5.827 0 8s.01 2.445.048 3.298c.04.852.174 1.433.372 1.942.204.526.478.973.923 1.417.444.445.89.72 1.417.923.51.198 1.09.333 1.942.372.853.04 1.125.048 3.298.048s2.445-.01 3.298-.048c.852-.04 1.433-.174 1.942-.372.526-.204.973-.478 1.417-.923.445-.444.72-.89.923-1.417.198-.51.333-1.09.372-1.942.04-.853.048-1.125.048-3.298s-.01-2.445-.048-3.298c-.04-.852-.174-1.433-.372-1.942-.204-.526-.478-.973-.923-1.417-.444-.445-.89-.72-1.417-.923-.51-.198-1.09-.333-1.942-.372C10.445.008 10.173 0 8 0zm0 1.44c2.136 0 2.39.01 3.233.048.78.036 1.203.166 1.485.276.374.145.64.318.92.598.28.28.453.546.598.92.11.282.24.705.276 1.485.038.844.047 1.097.047 3.233s-.01 2.39-.048 3.233c-.036.78-.166 1.203-.276 1.485-.145.374-.318.64-.598.92-.28.28-.546.453-.92.598-.282.11-.705.24-1.485.276-.844.038-1.097.047-3.233.047s-2.39-.01-3.233-.048c-.78-.036-1.203-.166-1.485-.276-.374-.145-.64-.318-.92-.598-.28-.28-.453-.546-.598-.92-.11-.282-.24-.705-.276-1.485C1.45 10.39 1.44 10.136 1.44 8s.01-2.39.048-3.233c.036-.78.166-1.203.276-1.485.145-.374.318-.64.598-.92.28-.28.546-.453.92-.598.282-.11.705-.24 1.485-.276C5.61 1.45 5.864 1.44 8 1.44zm0 2.452c-2.27 0-4.108 1.84-4.108 4.108 0 2.27 1.84 4.108 4.108 4.108 2.27 0 4.108-1.84 4.108-4.108 0-2.27-1.84-4.108-4.108-4.108zm0 6.775c-1.473 0-2.667-1.194-2.667-2.667 0-1.473 1.194-2.667 2.667-2.667 1.473 0 2.667 1.194 2.667 2.667 0 1.473-1.194 2.667-2.667 2.667zm5.23-6.937c0 .53-.43.96-.96.96s-.96-.43-.96-.96.43-.96.96-.96.96.43.96.96z"/></symbol>
  <symbol id="linkedin" viewBox="0 0 16 16"><path d="M13.632 13.635h-2.37V9.922c0-.886-.018-2.025-1.234-2.025-1.235 0-1.424.964-1.424 1.96v3.778h-2.37V6H8.51V7.04h.03c.318-.6 1.092-1.233 2.247-1.233 2.4 0 2.845 1.58 2.845 3.637v4.188zM3.558 4.955c-.762 0-1.376-.617-1.376-1.377 0-.758.614-1.375 1.376-1.375.76 0 1.376.617 1.376 1.375 0 .76-.617 1.377-1.376 1.377zm1.188 8.68H2.37V6h2.376v7.635zM14.816 0H1.18C.528 0 0 .516 0 1.153v13.694C0 15.484.528 16 1.18 16h13.635c.652 0 1.185-.516 1.185-1.153V1.153C16 .516 15.467 0 14.815 0z" fill-rule="nonzero"/></symbol>
  <symbol id="medium" viewBox="0 0 16 16"><path d="M11.824 12.628l-.276.45.798.398 2.744 1.372c.15.076.294.11.418.11.278 0 .467-.177.467-.492V5.883l-4.15 6.745zm4.096-8.67c-.004-.003 0-.01-.003-.012l-4.825-2.412c-.06-.03-.123-.038-.187-.044-.016 0-.03-.01-.047-.01-.184 0-.368.092-.467.254l-.24.39-.5.814-1.89 3.08 1.89 3.076.5.813.5.812.59.95 4.71-7.64c.02-.03.01-.06-.02-.08zm-6.27 7.045L7.17 6.97l-.295-.477-.294-.477-.25-.416v4.867l3.32 1.663.5.25.5.25-.5-.813-.5-.813zM.737 1.68L.59 1.608c-.085-.042-.166-.062-.24-.062-.206 0-.35.16-.35.427v10.162c0 .272.2.594.442.716l4.145 2.08c.107.06.208.08.3.08.257 0 .438-.2.438-.53V4.01c0-.02-.012-.04-.03-.047L.738 1.68z"/></symbol>
  <symbol id="pinterest" viewBox="0 0 16 16"><path d="M8 0C3.582 0 0 3.582 0 8c0 3.39 2.108 6.285 5.084 7.45-.07-.633-.133-1.604.028-2.295.146-.625.938-3.977.938-3.977s-.24-.48-.24-1.188c0-1.11.646-1.943 1.448-1.943.683 0 1.012.513 1.012 1.127 0 .687-.436 1.713-.662 2.664-.19.797.4 1.445 1.185 1.445 1.42 0 2.514-1.498 2.514-3.662 0-1.915-1.376-3.254-3.342-3.254-2.276 0-3.61 1.707-3.61 3.472 0 .687.263 1.424.593 1.825.066.08.075.15.057.23-.06.252-.196.796-.223.907-.035.146-.115.178-.268.107-.998-.465-1.624-1.926-1.624-3.1 0-2.524 1.834-4.84 5.287-4.84 2.774 0 4.932 1.977 4.932 4.62 0 2.757-1.74 4.977-4.153 4.977-.81 0-1.572-.422-1.833-.92l-.5 1.902c-.18.695-.667 1.566-.994 2.097.75.232 1.545.357 2.37.357 4.417 0 8-3.582 8-8s-3.583-8-8-8z" fill-rule="nonzero"/></symbol>
  <symbol id="rss" viewBox="0 0 16 16"><path d="M12.8 16C12.8 8.978 7.022 3.2 0 3.2V0c8.777 0 16 7.223 16 16h-3.2zM2.194 11.61c1.21 0 2.195.985 2.195 2.196 0 1.21-.985 2.194-2.196 2.194C.984 16 0 15.017 0 13.806c0-1.21.983-2.195 2.194-2.195zM10.606 16h-3.11c0-4.113-3.383-7.497-7.496-7.497v-3.11c5.818 0 10.606 4.79 10.606 10.607z"/></symbol>
  <symbol id="reddit" viewBox="0 0 16 16"><path d="M1.473 9.368c-.04.185-.06.374-.06.566 0 2.3 2.94 4.173 6.554 4.173 3.613 0 6.553-1.872 6.553-4.173 0-.183-.02-.364-.055-.54l-.01-.022c-.013-.036-.02-.073-.02-.11-.2-.784-.745-1.497-1.533-2.072-.03-.01-.058-.026-.084-.047-.017-.013-.03-.028-.044-.043-1.198-.824-2.91-1.34-4.807-1.34-1.88 0-3.576.506-4.772 1.315-.01.012-.02.023-.033.033-.026.022-.056.04-.087.05-.805.576-1.364 1.293-1.572 2.086 0 .038-.01.077-.025.114l-.005.01zM8 13.003c-1.198 0-2.042-.26-2.58-.8-.116-.116-.116-.305 0-.422.117-.11.307-.11.424 0 .42.42 1.125.63 2.155.63 1.03 0 1.73-.2 2.15-.62.11-.11.3-.11.42 0 .11.12.11.31 0 .43-.54.54-1.38.8-2.58.8zM5.592 7.945c-.61 0-1.12.51-1.12 1.12 0 .608.51 1.102 1.12 1.102.61 0 1.103-.494 1.103-1.102 0-.61-.494-1.12-1.103-1.12zm4.83 0c-.61 0-1.12.51-1.12 1.12 0 .608.51 1.102 1.12 1.102.61 0 1.103-.494 1.103-1.102 0-.61-.494-1.12-1.103-1.12zM13.46 6.88c.693.556 1.202 1.216 1.462 1.94.3-.225.48-.578.48-.968 0-.67-.545-1.214-1.214-1.214-.267 0-.52.087-.728.243zM1.812 6.64c-.67 0-1.214.545-1.214 1.214 0 .363.16.7.43.927.268-.72.782-1.37 1.478-1.92-.202-.14-.443-.22-.694-.22zm6.155 8.067c-3.944 0-7.152-2.14-7.152-4.77 0-.183.016-.363.046-.54-.53-.33-.86-.91-.86-1.545 0-1 .82-1.812 1.82-1.812.45 0 .87.164 1.2.455 1.24-.796 2.91-1.297 4.75-1.33l1.21-3.69.27.063s.01 0 .01.002l2.82.663c.23-.533.76-.908 1.38-.908.82 0 1.49.67 1.49 1.492 0 .823-.67 1.492-1.49 1.492s-1.49-.67-1.49-1.49L9.4 2.18l-.98 2.99c1.77.07 3.37.57 4.57 1.35.33-.31.764-.48 1.225-.48 1 0 1.814.81 1.814 1.81 0 .66-.36 1.26-.92 1.58.02.17.04.33.04.5-.01 2.63-3.21 4.77-7.16 4.77zM13.43 1.893c-.494 0-.895.4-.895.894 0 .493.4.894.894.894.49 0 .89-.4.89-.89s-.4-.89-.9-.89z"/></symbol>
  <symbol id="skype" viewBox="0 0 16 16"><path d="M8.035 12.6c-2.685 0-3.885-1.322-3.885-2.313 0-.51.374-.865.89-.865 1.15 0 .85 1.653 2.995 1.653 1.096 0 1.703-.597 1.703-1.208 0-.368-.18-.775-.904-.954l-2.387-.597C4.524 7.833 4.175 6.79 4.175 5.812c0-2.034 1.91-2.798 3.704-2.798 1.65 0 3.6.916 3.6 2.136 0 .523-.452.827-.97.827-.98 0-.798-1.36-2.773-1.36-.98 0-1.523.444-1.523 1.08 0 .636.774.84 1.446.993l1.767.392c1.936.433 2.427 1.566 2.427 2.633 0 1.652-1.266 2.886-3.82 2.886m7.4-3.264l-.014.084-.028-.16c.015.024.028.05.042.076.082-.45.125-.912.125-1.373 0-1.023-.2-2.014-.595-2.948-.38-.902-.925-1.712-1.62-2.407-.692-.696-1.5-1.242-2.4-1.623C10.015.59 9.025.39 8.005.39c-.48 0-.963.045-1.43.135H6.57l.08.04-.16-.023.08-.016C5.927.183 5.205 0 4.472 0 3.278 0 2.155.466 1.31 1.313.465 2.16 0 3.286 0 4.483c0 .763.195 1.512.563 2.175l.013-.083.028.16c-.015-.026-.027-.052-.04-.077-.076.43-.115.867-.115 1.305 0 1.022.2 2.014.593 2.948.38.903.925 1.713 1.62 2.408.693.695 1.5 1.242 2.4 1.623.932.397 1.92.597 2.94.597.445 0 .89-.04 1.325-.118l-.077-.043.162.028-.084.014c.67.378 1.426.58 2.2.58 1.194 0 2.317-.466 3.162-1.313.845-.846 1.31-1.972 1.31-3.17 0-.765-.197-1.517-.566-2.18" fill-rule="nonzero"/></symbol>
  <symbol id="googlescholar" viewBox="0 0 512 512">
    <path fill="#05bf85" opacity="0.9" d="M256,411.12L0,202.67,256,0v411.12Z"/>
    <path fill="#05bf85" d="M256,411.12l256-208.45L256,0v411.12Z"/>
    <circle fill="#a5efd1" cx="256" cy="362.67" r="149.33"/>
    <path fill="#05bf85" opacity="0.4" d="M121.04,298.67c23.97-50.45,75.39-85.33,134.96-85.33s110.99,34.88,134.96,85.33H121.04Z"/>
  </symbol>
  <symbol id="mpiae" viewBox="0 0 2200 2200">
    <path class="cls-1" d="M37.23,1044.88C37.23,490.67,490.67,34.7,1047.41,34.7s1010.16,455.97,1010.16,1010.18-453.44,1012.68-1010.16,1012.68S37.23,1601.62,37.23,1044.88h0ZM7,1044.88c0,574.37,466.04,1040.4,1040.41,1040.4s1037.88-466.03,1037.88-1040.4S1619.26,7,1047.41,7,7,473.03,7,1044.88h0Z"/>
    <path class="cls-1" d="M1730.08,1216.17c-30.22,25.2-70.53,25.2-100.78,47.87-15.1,15.1-12.59,30.22-5.02,50.39,12.59,22.67,5.02,20.14-10.08,27.72-37.79,12.59-37.79,52.89-85.65,47.85-2.53,0-12.62-5.05-7.57,2.5,5.05,7.57,7.57,2.53,17.63,2.53,17.63,2.5,22.67-5.05,35.29-12.59,17.63-15.12,15.1-20.17,35.26-30.25,5.05,0,17.63-2.5,25.17-2.5q2.53,5.05,2.53,10.08c0,10.08-17.63,20.14-25.2,22.67,10.08,7.55,25.2,17.63,22.67,27.72-2.5,5.05-2.5,7.55-10.05,10.05-7.57,5.05-27.72,5.05-45.37-10.05-2.5,2.5-5.02-5.05-12.59,2.5,17.63,17.63,40.3,12.59,42.84,17.63,5.05,2.53-12.59,25.2-12.59,27.72-10.08,32.75,2.5,60.47-2.53,90.68-2.5,25.2-10.08,37.79-32.75,52.92-40.3,27.69-68.01,35.26-113.36,42.81-115.87,7.55-191.46-32.75-274.57-95.73-85.67-62.97-118.4-95.73-143.6-130.99,0-15.12,10.08-25.2,0-42.84-7.56,5.05-5.05,15.12-10.08,20.17-7.56,10.08-22.67,15.12-35.26,15.12-32.75-12.62-35.26-52.92-55.42-75.59-47.86-45.34-60.47-113.36-37.78-168.79,10.08-17.63,25.19-32.75,45.34-40.3,20.16-2.5,45.36-2.5,57.94,20.17,17.64,15.1,27.72,40.3,32.75,62.97,7.56,12.59-2.52,22.67,10.08,32.75,20.16,2.5,37.78,7.55,55.41-5.05,15.12,2.5,15.12,17.63,27.72,25.17l17.63,10.08c20.17,10.08,47.87,10.08,65.51-5.05,32.75-32.75,25.17-68.01,35.26-103.28,30.25-27.72,50.39-65.51,50.39-103.3-2.5-25.17-10.08-47.85-22.67-73.05,2.53-12.59,10.08-22.67,12.59-35.26,5.05,0,10.08,0,12.62-2.52,35.26-7.56,65.48-37.79,80.61-70.54l2.5-2.52c37.79-2.52,88.18-17.64,108.35-57.94,5.02-17.64,25.17-5.05,37.77-7.56,20.17-2.52,42.84-12.59,55.42-25.19,7.55-2.52,10.08,2.52,12.59,5.05,7.57,30.23,25.2,57.94,35.29,90.68,12.59,22.67,15.1,45.34,12.59,68.03,2.5,35.26,25.17,70.53,40.3,108.32,12.59,37.79,37.79,78.09,52.89,115.9,2.53,15.14,10.08,27.74-.01,42.84h0ZM1737.66,1148.15c-27.72-62.97-57.96-115.87-80.63-181.37-17.63-22.67-7.55-47.86-10.05-73.06-10.08-35.26-25.2-65.5-40.32-103.28-5.02-10.08,7.57-12.59,10.08-22.67,7.57-17.64,2.53-37.79-5.05-57.94-5.05-10.08,7.57-15.12,5.05-25.19,0-17.63-12.59-30.23-25.17-37.79-17.63-25.19-25.2-37.78-45.34-60.45v-5.05c10.05-7.56,17.63-25.19,17.63-40.31-2.53-15.12-7.57-30.23-22.67-40.3-25.2-15.12-47.87,7.56-68.01,17.64-7.57,5.03-10.08,7.55-17.63,7.55-2.53-2.52-10.08-2.52-15.12-5.03l-17.63,17.64,22.67,7.56q2.5,2.52,2.5,5.03c-2.5,2.52-55.42,47.86-55.42,47.86l-95.7,95.73-27.72,27.72-85.67,98.25c-45.34,50.39-110.83,136.03-151.14,199.01-20.16,27.7-40.31,57.95-60.47,88.17,0,2.53-5.03,2.53-10.08,2.53h-12.59c-22.68,5.02-37.79,10.05-52.9,25.17-25.19,25.17-35.26,57.94-35.26,90.68,0,25.17,5.05,47.87,17.63,73.06-5.05,12.59-17.63,25.17-25.19,35.26l-5.03,5.05-7.56,5.05c-2.52,5.05-7.56,10.08-12.59,15.12,0,2.5,0,5.05,2.52,7.55h5.03c20.16-5.05,32.75-20.17,42.83-35.26l10.08-10.08q2.53,0,7.56,2.5s2.52,2.53,2.52,5.05v7.57c-47.86,47.85-88.17,73.06-136.03,103.28l-10.08,5.05h10.08c20.16,2.5,37.79-7.55,55.42-20.17l22.67-10.05c20.16-10.08,40.3-25.2,57.94-42.84l17.64-12.59c2.52,0,5.03,0,5.03,2.5l2.53,2.53,15.12,30.22c-2.53,15.12-2.53,30.22-2.53,42.84,0,30.22,5.05,60.44,12.61,90.68,5.03,30.22,12.59,60.44,12.59,90.68v5.05c0,10.05-10.08,22.67-20.16,25.17-17.63,2.5-40.3,2.5-65.5,2.5-30.23,0-60.47,2.53-85.65,7.57-7.56,2.5-15.12,5.05-25.19,7.55-7.56,2.53-17.63,5.05-22.67,5.05h-5.03l-2.52,2.53c-2.52,2.5-5.03,5.02-5.03,7.55h-2.52c0,5.05,2.52,7.55,5.05,7.55q2.52,2.53,5.03,2.53c7.56,0,15.12-2.53,25.19-5.05,2.52-2.53,10.08-5.05,15.12-5.05,50.39-10.08,103.28-7.55,141.07-2.53,17.63-2.5,47.86-2.5,57.94-27.72,5.05-10.05,5.05-20.14,5.05-30.22s0-20.14-2.52-30.22l-5.05-25.2c0-15.1-2.52-30.22-7.56-45.34-5.05-27.72-10.08-55.42-10.08-83.11v-15.12h2.52c2.52-2.53,2.52,0,5.03,2.5,5.03,2.53,7.56,5.05,10.08,5.05,2.52,2.53,7.56,2.53,10.08,2.53,5.03,0,7.56,2.5,7.56,5.05,2.52,25.17,10.08,50.39,20.16,73.06,5.05,17.63,10.08,35.26,12.59,52.89,7.56,27.72,15.12,57.94,15.12,85.65-.04,17.9-2.58,35.7-7.56,52.89-12.61,22.67-42.83,22.67-68.03,25.2h-10.08l-65.5-5.05c-57.94-5.05-113.36-10.08-173.82,0l-15.11,2.5c-7.56,0-15.12,2.53-22.68,0-2.52-2.5-2.52-5.02-2.52-10.05v-5.05c10.08-22.67,15.12-42.84,15.12-62.97,0-15.12-2.53-30.25-10.08-40.32-15.12-30.22-32.75-50.36-52.9-65.48-25.19-25.2-47.86-47.87-68.01-73.06-10.08,0-17.64-2.53-20.16-2.53l-12.59,12.62c15.12,15.1,27.72,27.72,45.34,45.34,25.19,12.59,45.36,37.79,62.98,55.39,22.68,25.2,27.72,52.92,22.68,83.14-2.53,35.29-35.28,50.39-57.95,75.59-7.56,17.63-15.11,37.77,0,55.39,5.05,20.17,40.3,17.65,45.34,32.75,10.08,40.3,75.57,62.97,90.68,62.97,12.61,2.53,25.19,15.12,25.19,15.12,27.72,20.17,60.47,15.12,80.62,12.59,17.63-2.5,50.39,12.62,70.53,10.08,32.75-12.59,57.94-7.55,90.68-10.08,100.76,0,214.12,0,317.4,12.62,20.17-2.53,42.84,10.05,60.47,2.5,2.53-7.55,0-15.12,0-20.17-50.39-78.08-57.94-163.72-30.22-249.4h20.14c65.51,7.57,125.98,0,193.99-40.3,35.26-17.63,52.89-62.97,50.39-93.2,0-20.17-7.57-45.34-5.05-65.51,2.5-10.08,7.55-25.17,17.63-30.22,2.5-2.53,15.12-10.08,20.17-20.17,7.55-20.17-7.57-27.72-12.62-30.22,12.62-2.53,22.67-27.72,12.62-42.84-7.57-7.55-15.12-35.26-15.12-42.81-2.53-12.62-2.53-25.2,7.55-35.29,27.72-12.59,52.92-15.1,80.61-27.72,20.17-7.55,30.25-27.72,30.25-45.34l-12.62-40.26h0ZM644.34,1777.95c-2.52,5.05-2.52,10.08-2.52,17.63-2.53,5.05-12.61,0-15.12-2.53-12.59-7.55-12.59-2.5-15.12-15.1,0-7.55,0-15.12,10.08-20.17s22.67-10.05,30.23,0c.01,5.05-7.55,12.62-7.55,20.17h0ZM712.36,1861.09c-17.63,0-27.7-7.57-35.26-27.72-7.56-22.67-10.08-42.84-5.03-68.01,2.52-2.53,5.03-5.05,7.56-2.53l22.67-10.08c5.05-2.5,12.59-2.5,20.16,0l2.52,5.05c0,12.62-2.52,20.17-2.52,32.75,0,30.22-5.05,37.79,5.03,65.51-2.52,7.54-10.08,5.03-15.12,5.03ZM1609.18,762.73c-2.53,2.52-5.05,5.03-10.08,5.03-7.55-7.56-5.05-12.59-2.5-20.16q0-2.52,2.5-2.52c5.05,0,7.55,2.52,7.55,2.52,2.53,5.05,2.53,10.09,2.53,15.12h0ZM989.47,1120.44c52.9-95.72,118.4-178.85,186.41-267.02l98.23-108.32c68.04-75.57,146.12-151.15,231.78-209.09,10.05-5.05,15.1-20.16,25.17-10.08l10.08,10.08c7.55,7.56,2.5,27.7-5.05,35.26-5.05,2.52-10.08,7.56-15.12,12.61,15.12,17.63,40.3,47.86,60.47,68.01,7.55,7.56,5.05,17.63,20.17,25.19,7.55,2.52,10.05,12.59,5.02,20.16-12.59,17.64-35.26,12.59-55.39,17.64-65.51,15.11-120.93,35.26-193.99,70.53-57.94,32.75-105.81,65.5-148.62,120.92-17.63,20.16-35.26,35.26-50.39,57.95-37.79,50.37-68.01,98.25-98.26,151.14-12.58,15.12-15.11,22.67-30.22,37.79-7.56,7.55-15.12-7.55-20.16-12.59v-2.53h-7.56c-2.5-7.55-15.11-10.06-12.58-17.64h0ZM1576.43,750.14c0,17.64-25.17,32.75-45.34,37.79-7.55,2.52-17.63,2.52-25.17,2.52q-2.53-2.52-2.53-5.05c0-10.08,2.53-15.11,2.53-22.67l5.05-2.53c20.14-5.03,40.3-10.08,60.44-12.59,2.52.01,5.03.01,5.03,2.53h0ZM1387.5,798.01l2.5-5.05c12.59-5.05,27.72-12.59,45.34-17.64l17.63-5.03c7.55-5.05,17.63-7.56,20.17,0,2.5,22.67-17.63,55.42-45.34,68.01-10.08,2.52-20.17,5.05-32.75,7.56-2.53-2.52-12.59,2.52-12.59-5.05.01-12.59,5.05-30.23,5.05-42.81h0ZM1183.43,1256.48c-7.55,2.53-52.89-15.1-47.85-10.05-10.08-12.62,7.55-17.65-32.75-32.75l-10.08,2.5c-2.5,0-5.05,2.53-10.08-2.5,0-7.57,10.08-5.05,10.08-12.59,15.12-32.75,7.57-60.47,7.57-93.23l7.54-27.72c22.67-25.17,22.67-27.72,35.26-42.83,15.12-20.16,17.63-20.16,35.29-35.26,5.02-5.05,10.05-5.05,12.59-2.52,10.08,7.56,10.08,12.61,12.59,20.16,5.05,32.75-15.12,55.42-37.79,73.05-17.63,15.12-32.75,35.29-30.22,57.96v2.5c10.08-7.55,17.63-10.08,22.67-17.63,10.08-30.22,45.34-42.84,65.51-68.01,10.05-15.12,2.5-40.31,0-57.95,0,2.53,25.17-12.59,20.14-7.56,10.08,5.05,10.08,15.12,15.12,25.19,10.08,27.72,10.08,55.43-7.57,80.61l-47.85,57.94c-.03,32.76,7.52,70.56-20.19,90.7h0ZM1246.4,964.27c-12.59,5.03-22.65,7.55-37.77,0-2.53-2.53-12.59-7.56-10.08-12.61,10.08-17.63,25.2-27.7,35.26-42.83l5.05-2.52c20.17-25.19,50.39-45.34,80.61-62.97l17.65-5.05c2.5-5.05,12.59-15.12,15.1-5.05,0,30.23-12.59,62.98-42.81,85.65-17.63,12.59-22.67,10.08-40.3,12.59l-7.57,12.61c-2.69,8.2-8.01,15.29-15.14,20.16ZM1082.66,1140.61v20.14c-2.5,20.17-10.05,45.34-30.22,55.42-10.08-2.5-7.56-17.63-10.08-25.17,7.56-20.17,22.67-35.29,32.75-55.42h5.05l2.5,5.03h0ZM818.17,1896.35c-7.56,10.08-12.59,5.05-20.16,5.05-22.68-5.05-35.28-15.12-42.83-40.3-7.56-35.29-7.56-75.59,0-110.85l2.52-2.5c17.64-2.53,40.31-5.05,47.87,0,5.03,2.5-7.56,65.48-7.56,65.48,0,12.59,7.56,45.34,12.59,62.97,0-.01,12.59,15.11,7.56,20.16h0ZM979.39,1856.04c0,25.17-30.23,45.34-42.83,47.85-15.12,5.05-57.94,2.53-68.01,0-12.59-5.05-42.83-62.97-40.3-93.2,0-25.2,7.56-62.97,17.64-68.01,10.06-2.53,35.26,0,35.26,0,12.59,0,20.16,2.5,30.23,5.05,7.56,0,0,10.05,5.03,15.1,2.52,12.59,2.52,25.2,10.08,37.79,12.61,22.67,32.75,35.26,52.9,42.84,2.5,2.52-.01,10.06-.01,12.59h0ZM949.16,1760.31c0-2.53,0-5.05,2.52-7.57h20.16c17.64,0,37.79,7.57,52.9-10.05,10.08,0,10.08,10.05,12.59,20.14s2.52,17.63,2.52,30.22c-5.05,7.57-7.56,20.17-17.64,25.2-12.96,5.05-27.34,5.05-40.3,0-20.16-12.59-32.75-30.22-32.75-57.94ZM1334.58,1672.15c-25.17,88.18-37.77,130.99,2.53,221.68,0,2.53,5.05,15.12,0,17.63-42.84-10.05-55.42-15.1-95.73-17.63-37.79-5.05-100.78,5.05-141.07,5.05-35.29,0-68.03,2.53-100.78,5.05-10.08-5.05-5.05-17.63-2.52-22.67,2.52-12.59,5.05-17.63,5.05-32.75,5.05-5.02,12.59-2.5,17.63-5.02,22.67-2.53,42.83-22.7,45.34-42.84,7.57-22.67,0-47.87-10.05-68.01,0-5.05-10.09-10.08-5.05-15.12,25.19-50.39,7.56-103.28-2.52-153.67-7.56-35.26-22.67-73.06-27.72-110.85,0-5.05-5.03-12.59,2.52-15.1l2.52,2.5c30.25,35.26,113.36,108.32,143.6,133.52,30.22,25.17,110.83,73.06,163.74,83.11,5.03,5.03,5.03,10.08,2.5,15.12h0Z"/>
    <path class="cls-1" d="M1556.26,911.37c5.05,7.56,7.57,12.59,5.05,20.16-10.05,0-12.59-12.59-20.14-17.64-15.12-5.03-27.72,0-40.3,5.05-35.29,15.12-65.51,42.83-98.26,57.94-2.5,0-7.55,0-10.08-2.52,5.05-5.05,15.12-7.56,22.7-10.08,35.26-22.68,68.01-60.47,110.83-65.51,12.58,0,22.66,2.53,30.21,12.61h0ZM1553.76,969.3c-2.5-7.56-2.5-22.68-12.59-25.19-2.53,7.55,0,12.59-2.53,17.63-2.5,2.53-7.55,7.56-15.1,5.05-42.84,5.03-73.06,40.31-108.32,60.47-12.62,7.56-25.2,10.08-37.79,15.11-2.53,0-2.53,2.53,0,5.05,40.3,5.05,78.09,7.57,118.4,12.59l42.81-5.02c2.53-7.57-5.05-10.08-5.05-17.64,7.57-17.64,7.57-37.79,2.53-55.42,5.05-7.57,17.64-.03,17.64-12.62ZM1523.54,1037.32c-7.57,7.56-15.12,0-22.67,2.52-17.63-2.52-45.34,2.5-65.51,0-2.5-2.52-5.05-5.05-2.5-7.56,2.5-5.05,10.05-5.05,15.1-10.08,22.67-12.59,42.84-25.19,65.51-30.23,5.05,0,10.08,2.52,10.08,5.03,2.5,12.62,0,30.25,0,40.32h0ZM1576.43,1165.79s2.5-5.05,5.05-5.05c2.5,2.53,2.5,5.05,2.5,7.57,0,7.55-2.5,15.1-2.5,22.67-5.05,10.08-5.05,20.14-5.05,30.22v10.08c7.55,7.55,15.12,10.08,25.2,7.55l17.63-10.08c15.1-10.05,27.72-17.63,55.42-25.17v10.08c0,2.5-25.2,12.59-25.2,12.59-20.17,7.55-40.3,15.12-57.94,25.17-5.05,2.53-10.08,0-15.12-2.5h-2.5c-7.57-10.08-7.57-20.17-7.57-30.22,0-7.57,0-17.63,2.53-25.2,2.5-7.55,5.05-15.1,5.05-25.17l2.52-2.54h0ZM979.39,1158.23c15.11,27.72,0,55.42,0,85.65,2.52,7.55,20.16,7.55,15.11,17.63-5.03,5.05-10.06,5.05-12.59,0-10.08-2.5-12.61-7.55-12.61-15.1-2.52-27.72,17.64-57.96,0-80.63-5.03-7.55-15.11-10.08-20.14-12.59-17.64,2.5-25.19,22.67-30.23,35.26-10.08,32.75-12.59,70.54,17.63,95.73,17.64,10.08,37.79,22.67,40.31,45.34,2.52,2.53,7.56,7.57,12.59,5.05,5.03,0,5.03-15.12,12.59-10.08l2.52,7.57c-2.52,5.05-2.52,17.63-12.59,17.63-5.05,0-10.08-2.53-15.12-5.05-12.59-12.59-2.52-30.22-20.16-35.26-30.23-10.08-50.39-40.3-52.9-70.54-2.52-27.72,0-60.44,25.19-83.14,10.08-7.55,20.16-12.59,32.75-7.55,7.59,0,15.15,5.05,17.66,10.08h0ZM606.56,1364.81c-55.42,25.17-70.53,90.68-73.06,93.2v5.05l5.03,2.5c2.52,0,52.9,17.65,115.88-12.59,60.47-30.22,73.06-93.2,73.06-93.2l2.52-7.57-5.03-2.5c-2.53,0-65.51-10.08-118.4,15.12h0ZM611.6,1377.41c40.31-17.63,85.65-17.63,103.28-15.12-5.05,17.63-22.67,57.94-68.01,78.09-45.34,22.67-83.14,17.63-98.25,15.12,5.05-17.63,22.67-60.47,62.98-78.09h0ZM661.98,1243.88c-55.42,25.2-75.57,88.18-75.57,90.68l-2.52,7.57h7.56s50.39,17.63,113.36-12.62c62.98-30.22,75.57-90.68,75.57-93.2v-5.05l-5.05-2.53c-2.52.01-60.47-10.04-113.36,15.14h0ZM667.02,1256.48c37.79-20.14,80.62-17.63,98.25-15.1-5.05,15.1-20.16,52.89-68.01,75.56-42.83,22.67-83.14,17.63-95.73,15.12,5.05-17.64,25.2-60.47,65.5-75.59h0Z"/>
    <path class="cls-1" d="M732.51,1125.48c-55.42,22.67-78.09,88.18-80.61,90.68v5.05l5.05,2.53c2.52,2.5,52.89,15.1,115.88-15.12,60.45-27.72,75.57-85.65,75.57-88.18v-5.05l-5.03-2.5c-2.54-2.5-57.96-10.08-110.87,12.59h0ZM737.55,1138.08c37.79-17.63,80.62-15.1,95.73-12.59-13.04,31.81-37.22,57.78-68.01,73.06-42.83,20.17-83.14,17.63-98.25,15.12,7.56-17.63,30.23-57.96,70.53-75.59ZM800.53,1009.61c-52.9,22.68-80.61,85.65-80.61,88.17l-2.52,7.57,7.56,2.5s50.37,12.59,113.36-15.12c62.98-30.22,78.09-85.64,78.09-88.16v-5.05l-5.03-2.52c-2.53-.01-55.43-10.09-110.85,12.59ZM808.09,1022.21c37.79-17.63,78.09-15.11,93.21-12.59-5.05,15.12-22.68,50.37-70.54,70.53-42.83,20.17-80.61,17.63-95.73,15.12,7.56-15.12,32.76-57.95,73.06-73.06Z"/>
    <path class="cls-1" d="M898.77,893.73c-52.89,22.68-83.14,83.14-85.65,88.17l-5.05,5.03,10.08,2.52c0,2.52,50.37,12.59,113.36-15.11,62.97-30.23,78.09-83.14,78.09-83.14l2.52-7.56-7.56-2.52c-2.49.01-50.35-10.06-105.78,12.61h0ZM903.82,903.8c40.31-15.11,75.57-12.59,90.68-10.08-5.03,15.12-22.67,47.86-68.01,68.01s-80.61,20.16-98.25,15.12c10.08-15.12,37.79-55.42,75.57-73.06Z"/>
    <path class="cls-1" d="M1007.11,780.37c-55.42,22.67-88.17,83.14-90.7,88.17l-5.03,7.56,10.06,2.52s50.39,7.56,113.37-17.63c65.51-27.72,78.09-80.61,80.61-80.61v-7.56l-7.55-2.52s-45.34-10.09-100.76,10.06ZM1012.14,792.97c37.79-15.11,73.06-12.59,88.18-10.08-7.57,12.59-25.2,45.34-70.54,65.5-42.83,17.64-80.61,17.64-98.25,17.64,12.59-17.64,40.3-57.95,80.61-73.06Z"/>
    <path class="cls-1" d="M1120.45,674.56c-55.42,22.67-90.68,83.14-93.2,85.65l-5.05,7.56,10.08,2.52c2.52,0,50.36,7.56,113.37-17.64,62.97-27.7,80.61-75.57,80.61-78.09l2.5-7.56h-7.55c-2.49,0-45.33-12.59-100.76,7.56h0ZM1125.5,687.16c37.79-15.12,70.54-12.59,85.65-10.08-7.55,12.59-25.17,42.83-70.53,62.97-42.84,17.64-78.09,20.16-95.73,17.64,10.09-17.63,42.81-55.42,80.61-70.53Z"/>
    <path class="cls-1" d="M1238.85,576.32c-52.89,22.67-93.2,83.14-95.73,85.65l-7.55,7.56,10.08,2.52c2.5,0,52.89,5.05,115.87-20.16,65.51-25.19,80.63-70.53,80.63-75.57l2.5-5.05h-7.55c0-2.52-40.3-15.11-98.26,5.05h0ZM1246.4,588.91c35.29-15.12,65.51-12.59,80.63-7.56-7.57,12.59-25.2,40.3-70.54,57.94-42.81,17.64-78.08,20.16-95.73,20.16,12.62-17.63,45.34-55.41,85.64-70.53h0Z"/>
    <path class="cls-1" d="M1362.3,490.67c-55.42,20.16-100.78,80.61-103.28,83.12l-5.05,7.56,10.08,2.52c2.5,0,52.89,2.52,115.87-20.16,62.97-27.7,80.61-70.53,80.61-73.05l2.53-5.05-7.55-2.52s-37.79-12.58-93.21,7.56h0ZM1367.34,500.74c35.26-12.59,65.51-10.08,78.09-7.56-7.55,12.59-27.72,40.31-73.06,57.94-40.3,15.12-75.56,20.16-93.23,20.16,12.62-17.63,47.88-55.42,88.19-70.53ZM520.91,1241.38c-2.52,2.5-40.31,52.89-42.83,110.83-5.03,60.47,42.83,105.81,45.34,108.35l5.05,5.02,5.05-5.02c0-2.53,40.3-37.79,42.83-108.35,2.52-68.01-45.34-110.83-47.86-110.83l-5.05-5.05-2.53,5.05h0ZM488.16,1359.78c0-2.53,2.52-5.05,2.52-7.57,2.52-42.81,25.19-83.11,35.26-95.73,12.59,12.62,37.79,42.84,37.79,90.68v5.05c-2.52,50.39-25.19,83.14-35.26,93.23-10.08-10.09-40.31-45.36-40.31-85.65h0Z"/>
    <path class="cls-1" d="M596.49,1110.39c-2.52,0-32.75,35.26-45.34,83.11,0,7.57-2.52,15.12-2.52,22.67-7.56,57.96,32.75,105.81,35.28,105.81l5.03,7.55,5.05-5.05c0-2.5,40.3-35.26,47.86-103.28,10.08-68.01-32.75-110.83-35.26-110.83l-5.05-5.05-5.05,5.06ZM558.69,1228.76c0-2.5,0-7.55,2.52-12.59,0-7.55,0-12.59,2.52-17.63,10.08-37.79,27.72-62.97,37.79-73.06,10.08,10.08,30.23,37.79,30.23,80.61,0,2.53,0,7.57-2.53,12.62-5.03,50.39-30.23,80.61-40.3,90.68-7.56-12.59-30.23-42.84-30.23-80.63h0Z"/>
    <path class="cls-1" d="M682.14,986.93s-32.75,30.23-50.37,78.09c0,7.57-2.53,12.62-5.05,20.17-10.08,55.42,25.19,105.81,27.7,108.32l2.53,5.05,5.03-2.5c2.52-2.53,42.83-35.29,55.42-98.26,15.12-65.48-22.67-110.84-25.19-110.84l-5.05-5.06-5.03,5.03h0ZM636.78,1107.86c0-7.55,2.52-12.59,2.52-20.14,2.53-5.05,2.53-12.62,5.05-17.65,9.11-25.54,23.73-48.76,42.83-68.01,7.56,10.08,20.16,32.75,20.16,68.01,0,7.57,0,15.12-2.52,25.2-7.56,45.34-32.75,73.06-42.83,85.65-7.56-12.59-25.2-40.31-25.2-73.06Z"/>
    <path class="cls-1" d="M777.86,871.06c-2.52,0-35.26,27.7-55.42,73.06-2.52,7.55-5.05,12.59-7.56,20.16-12.59,55.41,15.12,108.32,17.64,108.32l2.52,7.55,7.56-5.05s42.83-30.22,57.94-93.2c20.16-65.5-12.59-108.32-15.12-110.84l-5.03-5.05-2.52,5.05h0ZM724.96,994.49c0-7.56,0-17.63,2.52-27.7,2.52-5.05,5.05-12.59,7.56-15.12,12.61-35.26,35.28-57.94,45.36-68.01,5.03,10.08,15.12,30.23,15.12,57.94,0,12.59-2.52,22.68-5.05,35.26-12.59,45.34-37.79,70.53-50.39,83.12-5.06-12.58-15.12-35.25-15.12-65.48Z"/>
    <path class="cls-1" d="M878.62,762.73s-35.26,22.67-60.45,70.53c0,5.05-2.53,10.08-7.56,17.64-15.11,52.9,5.03,105.81,7.56,108.32l2.52,7.56,7.56-5.05s42.83-27.7,65.5-90.68c25.19-60.47-5.05-105.81-5.05-105.81l-2.52-7.56-7.56,5.05h0ZM818.17,893.73c0-12.59,2.52-25.19,7.55-37.79,0-7.56,2.53-12.59,5.05-17.63,17.64-32.75,40.31-52.9,50.39-60.45,5.05,7.55,10.08,22.67,10.08,45.34,0,12.59-2.53,27.72-10.08,45.36-10.88,30.66-30.07,57.7-55.42,78.09-2.53-10.09-7.56-27.73-7.56-52.92Z"/>
    <path class="cls-1" d="M989.47,661.97c-2.52,2.52-37.79,17.64-65.5,65.5-2.53,7.56-5.05,12.59-7.56,20.16-20.16,50.39-7.56,103.28-5.03,105.81v10.08l10.06-5.05s42.83-27.7,70.54-85.65c30.23-60.47,7.56-105.81,5.03-108.34l-2.52-5.03-5.03,2.53ZM918.93,808.07c0-17.63,2.52-37.78,10.08-57.94,2.52-5.03,2.52-10.08,7.56-15.11,17.64-32.75,42.83-50.39,52.9-57.94,2.52,7.56,5.03,17.63,5.03,32.75,0,17.63-2.52,35.26-12.59,57.94-20.16,40.3-47.86,62.98-60.47,73.06-2.52-7.57-2.52-20.16-2.52-32.76Z"/>
    <path class="cls-1" d="M1105.35,571.27c-2.53,0-40.32,12.61-70.54,60.47-2.52,5.03-5.03,10.08-10.08,17.63-20.16,47.86-15.12,105.81-15.12,108.32l2.52,7.56,7.56-5.05c2.52,0,45.34-25.19,80.62-80.61,32.72-57.95,15.1-103.29,12.59-105.81l-2.5-7.56-5.05,5.05h0ZM1022.22,735.03c0-20.16,2.52-52.9,15.12-80.62,2.52-7.56,5.03-10.08,7.56-15.11,22.68-32.75,47.86-47.86,57.94-55.42,2.53,7.56,2.53,12.59,2.53,22.67,0,17.63-2.53,40.3-17.65,65.5-22.67,40.3-50.37,62.98-65.48,73.06v-10.08h-.01Z"/>
    <path class="cls-1" d="M1228.77,485.63c-2.5,0-40.3,10.08-75.56,57.94-5.05,2.52-7.55,10.08-10.08,15.12-25.17,47.86-27.72,105.79-27.72,108.32v10.08l10.08-5.05c2.53-2.52,47.87-22.67,85.65-78.09,37.79-55.42,25.2-103.28,25.2-103.28l-2.53-7.56-5.05,2.52h0ZM1153.21,566.24c2.5-5.03,7.55-12.59,10.08-15.12,22.67-32.74,50.39-45.34,60.47-50.37,2.5,2.52,2.5,5.03,2.5,10.08,0,17.64-5.05,45.34-27.72,75.57-25.17,37.78-52.89,57.94-68.01,68.01,2.52-17.64,5.05-57.94,22.68-88.17h0Z"/>
    <path class="cls-1" d="M1357.25,407.54c-5.05,0-42.81,7.56-80.61,52.9-40.3,45.34-47.87,120.92-47.87,123.45l-2.5,10.08,10.08-2.52c2.5-2.52,47.85-22.67,90.68-75.57,42.81-52.9,35.26-100.76,35.26-103.28v-5.03h-5.05v-.03h0ZM1286.74,470.52c25.17-32.75,52.89-42.83,62.97-47.86,0,15.11-2.53,47.86-32.75,85.65-27.72,35.26-57.94,55.42-73.06,65.5,2.5-22.7,15.12-73.07,42.84-103.29Z"/>
    <path class="cls-1" d="M132.96,1044.88c0,312.36,168.79,612.13,440.84,783.45l10.08,5.05,7.56-10.08c2.52-2.53,2.52-5.05,2.52-7.55,0-5.05-5.05-12.62-7.56-15.12l-15.12-15.12c-57.94-62.97-70.53-123.45-70.53-168.79,0-52.89,17.64-85.65,20.16-88.16l2.52-10.08-5.03-7.55c-113.37-128.48-173.82-289.72-173.82-466.06,0-387.95,312.38-702.83,702.83-702.83,108.31,0,211.61,25.19,307.34,70.53l10.08,5.05,141.07-161.23-15.12-10.08c-136.01-74.2-288.44-113.17-443.37-113.36-503.81-.01-914.43,410.61-914.43,911.92h0ZM163.19,1044.88c0-486.2,395.5-881.7,884.21-881.7,143.6,0,284.67,35.26,413.13,100.76-20.14,22.67-93.2,105.81-103.28,118.4-98.23-45.36-201.54-70.54-309.85-70.54-405.58,0-733.06,330.02-733.06,733.08,0,181.37,60.47,347.63,176.34,478.64-7.56,15.1-20.16,47.85-20.16,93.2,0,35.26,10.08,80.63,35.26,125.98-214.12-168.79-342.6-428.26-342.6-697.81Z"/>
    <path class="cls-1" d="M1367.34,387.37c-99.27-49.83-208.84-75.72-319.93-75.57-405.58,0-733.06,330.02-733.06,733.08,0,183.89,62.98,352.66,181.38,486.18l12.59,12.59,55.42-83.11-2.52-5.05h-12.61c2.52-2.53,2.52-7.57,5.05-10.08-5.05-5.05-10.08-10.08-12.59-15.12-5.03,7.57-10.08,12.59-12.59,15.12-10.08-10.08-40.3-45.34-40.3-85.65,0-2.53,2.52-2.53,2.52-5.05-52.9-90.68-80.61-193.99-80.61-309.86,0-350.17,284.66-634.83,637.35-634.83,85.64,0,168.78,17.64,246.88,50.39,7.55-10.08,15.12-15.11,25.17-20.16-85.65-40.31-176.34-60.47-272.05-60.47-367.78,0-665.05,299.78-665.05,665.05,0,161.21,47.86,299.77,146.1,418.17-5.05,7.55-15.11,20.17-22.67,32.75-105.81-123.45-161.23-279.64-161.23-450.93,0-387.95,312.38-702.83,702.83-702.83,100.76,0,201.54,22.67,294.75,65.5-5.05,7.56-7.57,15.12-12.62,25.19,10.08-5.05,17.63-10.08,20.17-10.08,0,10.08,0,32.75-12.59,57.94h2.5l40.3-88.17-12.59-5.01h0ZM1359.8,243.79l-70.54,88.17c7.57,2.52,12.59,5.03,20.17,7.56l70.53-88.17c-7.57-2.52-12.61-5.05-20.16-7.56ZM1223.76,203.49l-40.32,98.25c5.05,2.52,12.62,5.03,20.17,5.03l40.3-100.76c-7.55,0-15.12-2.52-20.14-2.52ZM1059.99,183.33l-10.06,108.32h20.14l10.09-105.81c-7.55-2.52-12.59-2.52-20.17-2.52ZM901.3,195.93l20.14,105.81c7.56-2.52,12.61-2.52,20.16-2.52l-20.16-105.81c-7.55,0-12.59,2.52-20.14,2.52Z"/>
    <path class="cls-1" d="M747.64,236.24l47.86,98.25c5.03-2.52,12.59-5.05,17.63-7.56l-47.86-95.73c-5.03,2.52-12.59,5.05-17.63,5.05ZM601.52,309.28l70.53,80.61c5.03-2.52,12.59-7.56,17.64-10.08l-73.06-80.61c-5.03,2.53-10.06,5.05-15.11,10.08h0ZM468.01,407.54l90.7,62.98c5.03-5.05,10.08-7.56,15.11-12.61l-90.68-62.97c-5.05,5.03-10.09,7.55-15.12,12.59ZM354.65,533.49l105.81,40.3c2.52-7.56,7.56-12.59,12.59-17.63l-105.81-40.31c-5.05,5.05-7.56,10.08-12.59,17.64h0ZM266.47,677.08l113.37,15.11c5.03-5.03,7.56-12.59,10.08-17.63l-113.36-15.12c-2.53,5.05-5.05,10.08-10.09,17.64ZM211.06,835.79l113.36-10.08c2.52-7.56,5.03-15.12,5.03-20.16l-113.36,10.08c-2.52,7.55-5.03,15.11-5.03,20.16h0ZM185.86,1002.05l110.84-37.78c0-7.56,0-12.61,2.52-20.16l-113.36,37.78v20.16h0ZM193.41,1170.83l100.78-65.48v-22.67l-103.28,68.01c0,7.55,2.5,15.11,2.5,20.14ZM236.25,1334.57l80.61-88.16c0-7.57-2.52-15.12-5.05-22.67l-80.61,90.68c0,7.55,2.52,15.11,5.05,20.14ZM314.34,1493.28l55.42-108.32c-2.52-7.55-5.05-15.1-10.08-22.67l-57.94,110.85c2.52,7.55,7.55,12.58,12.59,20.14ZM410.06,1624.29l30.23-125.98c-2.52-7.55-10.08-15.1-12.59-20.14l-32.75,128.45c5.05,5.05,10.08,12.62,15.11,17.66h0ZM1347.18,485.63c2.53,5.05,5.05,5.05,7.57,7.56,2.5-2.52,5.05-2.52,7.55-2.52,2.53-2.52,5.05-2.52,7.55-5.05-7.55-2.52-12.59-7.56-17.63-12.59-2.52,5.03-2.52,10.06-5.05,12.59Z"/>
  </symbol>
  <symbol id="tumblr" viewBox="0 0 16 16"><path d="M9.708 16c-3.396 0-4.687-2.504-4.687-4.274V6.498H3.403V4.432C5.83 3.557 6.412 1.368 6.55.12c.01-.086.077-.12.115-.12H9.01v4.076h3.2v2.422H8.997v4.98c.01.667.25 1.58 1.472 1.58h.067c.424-.012.994-.136 1.29-.278l.77 2.283c-.288.424-1.594.916-2.77.936h-.12z" fill-rule="nonzero"/></symbol>
  <symbol id="twitch" viewBox="0 0 16 16"><g fill-rule="nonzero"><path d="M1.393 0L.35 2.783v11.13h3.824V16h2.088l2.085-2.088h3.13L15.65 9.74V0H1.394zm1.39 1.39H14.26v7.653l-2.435 2.435H8l-2.085 2.085v-2.085H2.783V1.39z"/><path d="M6.61 8.348H8V4.175H6.61v4.173zm3.824 0h1.39V4.175h-1.39v4.173z"/></g></symbol>
  <symbol id="twitter" viewBox="0 0 16 16"><path d="M16 3.038c-.59.26-1.22.437-1.885.517.677-.407 1.198-1.05 1.443-1.816-.634.375-1.337.648-2.085.795-.598-.638-1.45-1.036-2.396-1.036-1.812 0-3.282 1.468-3.282 3.28 0 .258.03.51.085.75C5.152 5.39 2.733 4.084 1.114 2.1.83 2.583.67 3.147.67 3.75c0 1.14.58 2.143 1.46 2.732-.538-.017-1.045-.165-1.487-.41v.04c0 1.59 1.13 2.918 2.633 3.22-.276.074-.566.114-.865.114-.21 0-.416-.02-.617-.058.418 1.304 1.63 2.253 3.067 2.28-1.124.88-2.54 1.404-4.077 1.404-.265 0-.526-.015-.783-.045 1.453.93 3.178 1.474 5.032 1.474 6.038 0 9.34-5 9.34-9.338 0-.143-.004-.284-.01-.425.64-.463 1.198-1.04 1.638-1.7z" fill-rule="nonzero"/></symbol>
  <symbol id="vimeo" viewBox="0 0 16 16"><path d="M15.992 4.275c-.07 1.56-1.16 3.697-3.263 6.41-2.176 2.832-4.017 4.248-5.522 4.248-.933 0-1.722-.862-2.367-2.588L3.55 7.6c-.48-1.724-.993-2.587-1.542-2.587-.12 0-.538.252-1.255.755L0 4.796C.79 4.1 1.568 3.406 2.335 2.71c1.053-.912 1.844-1.39 2.37-1.44 1.246-.12 2.012.733 2.3 2.56.31 1.97.526 3.194.647 3.673.36 1.634.754 2.45 1.185 2.45.335 0 .838-.53 1.51-1.59.67-1.06 1.028-1.866 1.076-2.42.096-.915-.263-1.374-1.077-1.374-.383 0-.778.087-1.185.262.788-2.58 2.29-3.834 4.508-3.762 1.644.048 2.42 1.116 2.324 3.205z" fill-rule="nonzero"/></symbol>
  <symbol id="youtube" viewBox="0 0 16 16"><path d="M0 7.345c0-1.294.16-2.59.16-2.59s.156-1.1.636-1.587c.608-.637 1.408-.617 1.764-.684C3.84 2.36 8 2.324 8 2.324s3.362.004 5.6.166c.314.038.996.04 1.604.678.48.486.636 1.588.636 1.588S16 6.05 16 7.346v1.258c0 1.296-.16 2.59-.16 2.59s-.156 1.102-.636 1.588c-.608.638-1.29.64-1.604.678-2.238.162-5.6.166-5.6.166s-4.16-.037-5.44-.16c-.356-.067-1.156-.047-1.764-.684-.48-.487-.636-1.587-.636-1.587S0 9.9 0 8.605v-1.26zm6.348 2.73V5.58l4.323 2.255-4.32 2.24h-.002z"/></symbol>
  <symbol id="link" viewBox="0 0 16 16"><path d="M5.86 12.7l-.81.8c-.7.7-1.84.7-2.54 0a1.75 1.75 0 0 1 0-2.5l2.98-2.96c.61-.61 1.77-1.52 2.62-.68a1 1 0 1 0 1.4-1.4c-1.44-1.43-3.57-1.17-5.42.67L1.1 9.6a3.72 3.72 0 0 0 0 5.32 3.78 3.78 0 0 0 5.34 0l.8-.8a1 1 0 1 0-1.39-1.42zm9.03-11.5c-1.55-1.53-3.7-1.6-5.14-.19l-1 1a1 1 0 1 0 1.39 1.41l1-1c.75-.74 1.72-.43 2.35.2a1.75 1.75 0 0 1 0 2.5l-3.17 3.15c-1.46 1.45-2.14.77-2.43.48a1 1 0 0 0-1.4 1.4c.67.67 1.43 1 2.23 1 .98 0 2.01-.5 3-1.47l3.17-3.15a3.72 3.72 0 0 0 0-5.32z"/></symbol>
  <symbol id="email" viewBox="0 0 16 11"><path fill-rule="evenodd" d="M1.33 0h13.34L8 5 1.33 0zM16 0v11H0V0l8 6 8-6z"/></symbol>
  <symbol id="nav" viewBox="0 0 16 11"><path d="M0 12h16v-2H0v2zm0-5h16V5H0v2zm0-7v2h16V0H0z"/></symbol>
</svg>
