<?xml version="1.0" encoding="UTF-8"?><svg id="Layer_1" xmlns="http://www.w3.org/2000/svg" viewBox="0 0 27.06 21.3"><defs><style>.cls-1{fill:none;}.cls-1,.cls-2{stroke:#05bf85;stroke-miterlimit:10;}.cls-2{fill:#05bf85;opacity:.5;}</style></defs><polygon class="cls-1" points="15.51 20.8 12.12 16.15 9.27 16.78 8.01 16.15 6.12 14.41 6.12 13.15 1.71 11.8 .55 8.7 3.36 3.81 12.61 .52 19.14 1.73 24.03 5.41 26.12 9.81 26.55 14.07 25.44 16.15 24.42 17.37 23.36 16.98 23.26 18.48 22.14 19.4 18.9 20.17 17.74 19.59 16.96 19.35 17.01 20.8 15.51 20.8"/><polygon class="cls-2" points="17.74 19.59 18.9 20.17 22.14 19.4 23.26 18.48 23.36 16.98 24.42 17.37 25.44 16.16 26.55 14.07 26.12 9.81 26.06 9.69 1.57 9.69 1.57 11.43 1.71 11.8 6.12 13.15 6.12 14.41 8.01 16.16 9.27 16.78 12.12 16.16 15.51 20.8 17.01 20.8 16.96 19.35 17.74 19.59"/></svg>