<?xml version="1.0" encoding="UTF-8"?>
<svg id="Layer_1" xmlns="http://www.w3.org/2000/svg" viewBox="0 0 311.99 245.3">
  <defs>
    <style>
      .cls-1 {
        fill: none;
      }

      .cls-1, .cls-2 {
        stroke: #05bf85;
        stroke-miterlimit: 10;
        stroke-width: 10px;
      }

      .cls-2 {
        fill: #05bf85;
        opacity: .5;
      }
    </style>
  </defs>
  <polygon class="cls-1" points="178.91 240.3 139.63 186.42 106.52 193.72 91.93 186.42 70.04 166.22 70.04 151.63 18.98 135.92 5.51 100 38.06 43.32 145.24 5.16 221 19.19 277.68 61.84 301.81 112.91 306.86 162.29 293.96 186.42 282.17 200.45 269.83 195.96 268.7 213.36 255.8 224.02 218.2 233 204.73 226.27 195.75 223.46 196.31 240.3 178.91 240.3"/>
  <polygon class="cls-2" points="204.72 226.27 218.19 233.01 255.79 224.03 268.7 213.36 269.82 195.97 282.16 200.46 293.95 186.43 306.86 162.3 301.81 112.91 301.17 111.55 17.37 111.55 17.37 131.63 18.97 135.92 70.04 151.63 70.04 166.23 91.92 186.43 106.51 193.72 139.62 186.43 178.91 240.3 196.3 240.3 195.74 223.47 204.72 226.27"/>
</svg>